<?xml version="1.0" encoding="UTF-8" standalone="no"?>
<svg version="1.0" viewBox="0 0 512 512" xmlns="http://www.w3.org/2000/svg">
<style>
   #bg-path {
      fill: #fb0424;
      stroke-width: 0.1;
   }
   #circle-path {
      opacity: 1;
      fill: #fb0424;
   }
   #j-path {
      <!-- fill: #fb0424; -->
      fill: #ffffff;
      stroke-width: 0.1;
      opacity: 1;
   }
   #b-path {
      fill: #ffffff;
      stroke-width: 0.1;
      opacity: 1;
   }
</style>
  <g id="bg">
    <path
       d="M 0,0 V 256.00049 511.99951 H 256.00049 511.99951 V 256.00049 0 H 256.00049 Z m 211.99951,45 h 37.5 37.5 v 64.8999 64.99951 l 7.30078,-3.29882 c 64.59988,-29.29994 139.2993,-8.49998 178.69922,49.8999 23.89996,35.39992 30.60096,78.8991 18.50098,120.99902 -3.4,11.79998 -12.70012,30.70002 -20.6001,42 -21.39996,30.09994 -55.40047,51.40012 -92.90039,58.1001 -11.19998,2 -35.79953,2 -46.99951,0 -21.09996,-3.8 -42.30053,-12.60022 -59.50049,-24.7002 -30.19994,-21.49994 -51.70049,-55.899 -58.00049,-92.89892 -2,-11.59998 -1.99922,-13.60009 -1.69922,-155.29981 z M 15.799805,298.99951 h 37.5 37.5 L 91.5,305.69971 c 0.999998,8.89998 3.799813,18.1008 8.299805,26.80078 4.299995,8.29998 15.899535,20.29894 24.499515,25.39892 19.39996,11.39998 42.60033,12.70057 63.30029,3.60059 3,-1.3 5.7,-2.40049 6,-2.50049 0.3,0 1.99982,4.10069 3.7998,9.20069 6.1,17.39996 16.4009,35.89953 27.90088,49.99951 l 4.69922,5.80078 -7.69922,3.89941 c -22.79994,11.39998 -51.70082,16.8002 -76.30078,14.2002 -34.79992,-3.8 -63.69907,-17.60006 -87.999022,-42 C 33.200538,375.20014 19.099994,344.10012 16.5,308.2002 Z"
       class="bg-path"
       id="bg-path" />
  </g>

  <g id="j">
    <path
       d="M 15.799805,298.99951 16.5,308.2002 c 2.599994,35.89992 16.700538,66.99994 41.500488,91.8999 24.299952,24.39994 53.199102,38.2 87.999022,42 24.59996,2.6 53.50084,-2.80022 76.30078,-14.2002 l 7.69922,-3.89941 -4.69922,-5.80078 c -11.49998,-14.09998 -21.80088,-32.59955 -27.90088,-49.99951 -1.79998,-5.1 -3.4998,-9.20069 -3.7998,-9.20069 -0.3,0.1 -3,1.20049 -6,2.50049 -20.69996,9.09998 -43.90033,7.79939 -63.30029,-3.60059 C 115.69934,352.79943 104.0998,340.80047 99.799805,332.50049 95.299813,323.80051 92.499998,314.59969 91.5,305.69971 l -0.700195,-6.7002 h -37.5 z"
       class="j-path"
       id="j-path" />
  </g>
  <g id="b">
    <path
       d="m 211.99951,45 -0.19922,124.70068 c -0.3,141.69972 -0.30078,143.69983 1.69922,155.29981 6.3,36.99992 27.80055,71.39898 58.00049,92.89892 17.19996,12.09998 38.40053,20.9002 59.50049,24.7002 11.19998,2 35.79953,2 46.99951,0 37.49992,-6.69998 71.50043,-28.00016 92.90039,-58.1001 7.89998,-11.29998 17.2001,-30.20002 20.6001,-42 12.09998,-42.09992 5.39898,-85.5991 -18.50098,-120.99902 -39.39992,-58.39988 -114.09934,-79.19984 -178.69922,-49.8999 l -7.30078,3.29882 V 109.8999 45 h -37.5 z"
       class="b-path"
       id="b-path" />
  </g>
  <g id="circle">
    <path
       d="M3425 2776 c-263 -51 -475 -249 -539 -502 -21 -82 -21 -257 0 -337 63 -242 260 -437 498 -492 87 -20 235 -20 321 0 239 55 444 260 501 501 21 90 21 240 -1 324 -89 346 -438 572 -780 506z"
       id="circle-path"
       transform="matrix(0.1,0,0,-0.1,0,512)"
       class="circle-path"
       />
  </g>  
</svg>
