<?xml version="1.0" encoding="UTF-8" standalone="no"?>
<svg width="400px" height="744px" viewBox="0 0 400 744" version="1.1" xmlns="http://www.w3.org/2000/svg" xmlns:xlink="http://www.w3.org/1999/xlink" xmlns:sketch="http://www.bohemiancoding.com/sketch/ns">
    <!-- Generator: Sketch 3.1.1 (8761) - http://www.bohemiancoding.com/sketch -->
    <title>Group</title>
    <desc>Created with Sketch.</desc>
    <defs></defs>
    <g id="Page-1" stroke="none" stroke-width="1" fill="none" fill-rule="evenodd" sketch:type="MSPage">
        <g id="Group" sketch:type="MSLayerGroup">
            <rect id="Rectangle-1" stroke="#D1D1CF" fill-opacity="0.0298507463" sketch:type="MSShapeGroup" x="0" y="0" width="400" height="744"></rect>
            <g id="Rectangle-2-+-staging/css/style.cs" transform="translate(20.000000, 183.000000)">
                <rect id="Rectangle-2" stroke="#335B89" fill="#335B89" sketch:type="MSShapeGroup" x="0" y="0" width="360" height="32"></rect>
                <text id="staging/css/style.cs" sketch:type="MSTextLayer" font-family="Lato" font-size="18" font-weight="normal">
                    <tspan x="14.1176471" y="23" fill="#FFFFFF">staging/css</tspan>
                    <tspan x="101.894647" y="23" fill="#AEC7E5">/style.</tspan>
                    <tspan x="150.881647" y="23" fill="#FFFFFF">css</tspan>
                </text>
            </g>
            <g id="Rectangle-2-+-staging/css/style.cs-2" transform="translate(20.000000, 687.000000)">
                <rect id="Rectangle-2" stroke="#335B89" fill="#335B89" sketch:type="MSShapeGroup" x="0" y="0" width="360" height="32"></rect>
                <text id="public/index.html" sketch:type="MSTextLayer" font-family="Lato" font-size="18" font-weight="normal" fill="#FFFFFF">
                    <tspan x="11" y="21">public/index.html</tspan>
                </text>
            </g>
            <g id="Rectangle-2-+-hugo/layouts/index.h-+-hugo/static/css/styl-2" transform="translate(20.000000, 341.000000)">
                <rect id="Rectangle-2" stroke="#335B89" fill="#335B89" sketch:type="MSShapeGroup" x="0" y="0" width="360" height="55"></rect>
                <text id="hugo/layouts/index.h" sketch:type="MSTextLayer" font-family="Lato" font-size="18" font-weight="normal" fill="#AEC7E5">
                    <tspan x="11.2941176" y="46">hugo/layouts/index.html</tspan>
                </text>
                <text id="hugo/static/css/styl" sketch:type="MSTextLayer" font-family="Lato" font-size="18" font-weight="normal">
                    <tspan x="11.2941176" y="22" fill="#FFFFFF">hugo/static</tspan>
                    <tspan x="101.015118" y="22" fill="#AEC7E5">/css/style</tspan>
                    <tspan x="177.254118" y="22" fill="#FFFFFF">-f32deb4</tspan>
                    <tspan x="251.234118" y="22" fill="#AEC7E5">.css</tspan>
                </text>
            </g>
            <g id="Rectangle-2-+-hugo/layouts/index.h-+-hugo/static/css/styl-5" transform="translate(20.000000, 516.000000)">
                <rect id="Rectangle-2" stroke="#335B89" fill="#335B89" sketch:type="MSShapeGroup" x="0" y="0" width="360" height="55"></rect>
                <text id="public/index.html" sketch:type="MSTextLayer" font-family="Lato" font-size="18" font-weight="normal">
                    <tspan x="11.2941176" y="46" fill="#FFFFFF">public</tspan>
                    <tspan x="58.6611176" y="46" fill="#AEC7E5">/index.html</tspan>
                </text>
                <text id="public/css/style-f32" sketch:type="MSTextLayer" font-family="Lato" font-size="18" font-weight="normal">
                    <tspan x="11.2941176" y="22" fill="#FFFFFF">public</tspan>
                    <tspan x="58.6611176" y="22" fill="#AEC7E5">/css/style-f32deb4.css</tspan>
                </text>
            </g>
            <g id="Rectangle-2-+-src/styles/style.scss" transform="translate(20.000000, 25.000000)">
                <rect id="Rectangle-2" stroke="#335B89" fill="#335B89" sketch:type="MSShapeGroup" x="0" y="0" width="360" height="35"></rect>
                <text id="src/styles/style.scss" sketch:type="MSTextLayer" font-family="Lato" font-size="18" font-weight="normal" fill="#AEC7E5">
                    <tspan x="8.48959645" y="22.112">src/styles/style.scss</tspan>
                </text>
            </g>
            <g id="Rectangle-12-+-REPLACE-ALL-REFERENC-+-Rectangle-12" transform="translate(20.000000, 607.000000)">
                <rect id="Rectangle-12" stroke="#169F4F" fill-opacity="0" fill="#D8D8D8" sketch:type="MSShapeGroup" x="95" y="0" width="265" height="45"></rect>
                <text id="REPLACE-ALL-REFERENC" sketch:type="MSTextLayer" font-family="Lato" font-size="18" font-weight="normal" fill="#169F4F">
                    <tspan x="102" y="19">REPLACE ALL REFERENCES OF</tspan>
                    <tspan x="102" y="41" font-weight="bold">STYLE </tspan>
                    <tspan x="158.412" y="41"> WITH </tspan>
                    <tspan x="215.436" y="41" font-weight="bold">STYLE-F32DEB4</tspan>
                </text>
                <rect id="Rectangle-12" stroke="#169F4F" fill="#169F4F" sketch:type="MSShapeGroup" x="0" y="0" width="95" height="45"></rect>
                <text id="reference" sketch:type="MSTextLayer" font-family="Lato" font-size="18" font-weight="normal" fill="#FFFFFF">
                    <tspan x="10" y="27">reference</tspan>
                </text>
            </g>
            <g id="Rectangle-12-+-REPLACE-ALL-REFERENC-+-Rectangle-13" transform="translate(20.000000, 98.000000)">
                <rect id="Rectangle-12" stroke="#169F4F" fill-opacity="0" fill="#D8D8D8" sketch:type="MSShapeGroup" x="95" y="0" width="265" height="45"></rect>
                <text id="SCSS-to-CSS,-AUTOPRE" sketch:type="MSTextLayer" font-family="Lato" font-size="18" font-weight="normal" fill="#169F4F">
                    <tspan x="102" y="19">SCSS to CSS, AUTOPREFIX</tspan>
                    <tspan x="102" y="41">MINIFY</tspan>
                </text>
                <rect id="Rectangle-12" stroke="#169F4F" fill="#169F4F" sketch:type="MSShapeGroup" x="0" y="0" width="95" height="45"></rect>
                <text id="style" sketch:type="MSTextLayer" font-family="Lato" font-size="18" font-weight="normal" fill="#FFFFFF">
                    <tspan x="29" y="27">style</tspan>
                </text>
            </g>
            <g id="Rectangle-12-+-REPLACE-ALL-REFERENC-+-Rectangle-14" transform="translate(20.000000, 256.000000)">
                <rect id="Rectangle-12" stroke="#169F4F" fill-opacity="0" fill="#D8D8D8" sketch:type="MSShapeGroup" x="95" y="0" width="265" height="45"></rect>
                <text id="FINGERPRINT-STYLE.CS" sketch:type="MSTextLayer" font-family="Lato" font-size="18" font-weight="normal" fill="#169F4F">
                    <tspan x="102" y="19">FINGERPRINT </tspan>
                    <tspan x="221.349" y="19" font-weight="bold">STYLE.CSS</tspan>
                    <tspan x="308.964" y="19">  TO</tspan>
                    <tspan x="102" y="41" font-weight="bold">STYLE-F32DEB4.CSS</tspan>
                </text>
                <rect id="Rectangle-12" stroke="#169F4F" fill="#169F4F" sketch:type="MSShapeGroup" x="0" y="0" width="95" height="45"></rect>
                <text id="revision" sketch:type="MSTextLayer" font-family="Lato" font-size="18" font-weight="normal" fill="#FFFFFF">
                    <tspan x="17" y="27">revision</tspan>
                </text>
            </g>
            <g id="Rectangle-12-+-REPLACE-ALL-REFERENC-+-Rectangle-15" transform="translate(20.000000, 435.000000)">
                <rect id="Rectangle-12" stroke="#169F4F" fill-opacity="0" fill="#D8D8D8" sketch:type="MSShapeGroup" x="95" y="0" width="265" height="45"></rect>
                <text id="GENERATE-STATIC-SITE" sketch:type="MSTextLayer" font-family="Lato" font-size="18" font-weight="normal" fill="#169F4F">
                    <tspan x="131" y="29">GENERATE STATIC SITE</tspan>
                </text>
                <rect id="Rectangle-12" stroke="#169F4F" fill="#169F4F" sketch:type="MSShapeGroup" x="0" y="0" width="95" height="45"></rect>
                <text id="hugo" sketch:type="MSTextLayer" font-family="Lato" font-size="18" font-weight="normal" fill="#FFFFFF">
                    <tspan x="28" y="27">hugo</tspan>
                </text>
            </g>
            <polygon id="Triangle-1" stroke="#D0011B" fill="#D0011B" sketch:type="MSShapeGroup" transform="translate(200.000000, 79.500000) scale(1, -1) translate(-200.000000, -79.500000) " points="200 72 212 87 188 87 "></polygon>
            <polygon id="Triangle-3" stroke="#D0011B" fill="#D0011B" sketch:type="MSShapeGroup" transform="translate(200.000000, 235.500000) scale(1, -1) translate(-200.000000, -235.500000) " points="200 228 212 243 188 243 "></polygon>
            <polygon id="Triangle-5" stroke="#D0011B" fill="#D0011B" sketch:type="MSShapeGroup" transform="translate(200.000000, 415.500000) scale(1, -1) translate(-200.000000, -415.500000) " points="200 408 212 423 188 423 "></polygon>
            <polygon id="Triangle-7" stroke="#D0011B" fill="#D0011B" sketch:type="MSShapeGroup" transform="translate(201.000000, 588.500000) scale(1, -1) translate(-201.000000, -588.500000) " points="201 581 213 596 189 596 "></polygon>
            <path d="M204.666667,161.5 C204.666667,160.349826 204.259766,159.367839 203.445964,158.554036 C202.632161,157.740234 201.650174,157.333333 200.5,157.333333 C199.349826,157.333333 198.367839,157.740234 197.554036,158.554036 C196.740234,159.367839 196.333333,160.349826 196.333333,161.5 C196.333333,162.650174 196.740234,163.632161 197.554036,164.445964 C198.367839,165.259766 199.349826,165.666667 200.5,165.666667 C201.650174,165.666667 202.632161,165.259766 203.445964,164.445964 C204.259766,163.632161 204.666667,162.650174 204.666667,161.5 L204.666667,161.5 Z M213,159.725911 L213,163.339193 C213,163.469401 212.956597,163.594184 212.869792,163.713542 C212.782986,163.832899 212.674479,163.903429 212.544271,163.92513 L209.533203,164.380859 C209.32704,164.966797 209.115451,165.460503 208.898438,165.861979 C209.278212,166.404514 209.858724,167.153212 210.639974,168.108073 C210.748481,168.238281 210.802734,168.373915 210.802734,168.514974 C210.802734,168.656033 210.753906,168.780816 210.65625,168.889323 C210.363281,169.290799 209.826172,169.876736 209.044922,170.647135 C208.263672,171.417535 207.753689,171.802734 207.514974,171.802734 C207.384766,171.802734 207.243707,171.753906 207.091797,171.65625 L204.845703,169.898438 C204.368273,170.148003 203.874566,170.354167 203.364583,170.516927 C203.190972,171.992622 203.033637,173.001736 202.892578,173.544271 C202.816623,173.84809 202.621311,174 202.306641,174 L198.693359,174 C198.54145,174 198.408529,173.953885 198.294596,173.861654 C198.180664,173.769423 198.118273,173.652778 198.107422,173.511719 L197.651693,170.516927 C197.120009,170.343316 196.631727,170.142578 196.186849,169.914714 L193.891927,171.65625 C193.78342,171.753906 193.647786,171.802734 193.485026,171.802734 C193.333116,171.802734 193.197483,171.743056 193.078125,171.623698 C191.710938,170.386719 190.815755,169.47526 190.392578,168.889323 C190.316623,168.780816 190.278646,168.656033 190.278646,168.514974 C190.278646,168.384766 190.322049,168.259983 190.408854,168.140625 C190.571615,167.91276 190.848307,167.551975 191.238932,167.058268 C191.629557,166.564562 191.922526,166.182075 192.117839,165.910807 C191.82487,165.368273 191.602431,164.831163 191.450521,164.299479 L188.472005,163.860026 C188.330946,163.838325 188.217014,163.770508 188.130208,163.656576 C188.043403,163.542643 188,163.415148 188,163.274089 L188,159.660807 C188,159.530599 188.043403,159.405816 188.130208,159.286458 C188.217014,159.167101 188.320095,159.096571 188.439453,159.07487 L191.466797,158.619141 C191.618707,158.120009 191.830295,157.620877 192.101562,157.121745 C191.667535,156.503255 191.087023,155.754557 190.360026,154.875651 C190.251519,154.745443 190.197266,154.615234 190.197266,154.485026 C190.197266,154.376519 190.246094,154.251736 190.34375,154.110677 C190.625868,153.720052 191.160265,153.136827 191.94694,152.361003 C192.733615,151.585178 193.246311,151.197266 193.485026,151.197266 C193.626085,151.197266 193.767144,151.251519 193.908203,151.360026 L196.154297,153.101562 C196.631727,152.851997 197.125434,152.645833 197.635417,152.483073 C197.809028,151.007378 197.966363,149.998264 198.107422,149.455729 C198.183377,149.15191 198.378689,149 198.693359,149 L202.306641,149 C202.45855,149 202.591471,149.046115 202.705404,149.138346 C202.819336,149.230577 202.881727,149.347222 202.892578,149.488281 L203.348307,152.483073 C203.879991,152.656684 204.368273,152.857422 204.813151,153.085286 L207.124349,151.34375 C207.222005,151.246094 207.352214,151.197266 207.514974,151.197266 C207.656033,151.197266 207.791667,151.251519 207.921875,151.360026 C209.321615,152.651259 210.216797,153.573568 210.607422,154.126953 C210.683377,154.213759 210.721354,154.333116 210.721354,154.485026 C210.721354,154.615234 210.677951,154.740017 210.591146,154.859375 C210.428385,155.08724 210.151693,155.448025 209.761068,155.941732 C209.370443,156.435438 209.077474,156.817925 208.882161,157.089193 C209.16428,157.631727 209.386719,158.163411 209.549479,158.684245 L212.527995,159.139974 C212.669054,159.161675 212.782986,159.229492 212.869792,159.343424 C212.956597,159.457357 213,159.584852 213,159.725911 L213,159.725911 Z" id="Shape" fill="#169F4F" sketch:type="MSShapeGroup"></path>
            <path d="M204.666667,320.5 C204.666667,319.349826 204.259766,318.367839 203.445964,317.554036 C202.632161,316.740234 201.650174,316.333333 200.5,316.333333 C199.349826,316.333333 198.367839,316.740234 197.554036,317.554036 C196.740234,318.367839 196.333333,319.349826 196.333333,320.5 C196.333333,321.650174 196.740234,322.632161 197.554036,323.445964 C198.367839,324.259766 199.349826,324.666667 200.5,324.666667 C201.650174,324.666667 202.632161,324.259766 203.445964,323.445964 C204.259766,322.632161 204.666667,321.650174 204.666667,320.5 L204.666667,320.5 Z M213,318.725911 L213,322.339193 C213,322.469401 212.956597,322.594184 212.869792,322.713542 C212.782986,322.832899 212.674479,322.903429 212.544271,322.92513 L209.533203,323.380859 C209.32704,323.966797 209.115451,324.460503 208.898438,324.861979 C209.278212,325.404514 209.858724,326.153212 210.639974,327.108073 C210.748481,327.238281 210.802734,327.373915 210.802734,327.514974 C210.802734,327.656033 210.753906,327.780816 210.65625,327.889323 C210.363281,328.290799 209.826172,328.876736 209.044922,329.647135 C208.263672,330.417535 207.753689,330.802734 207.514974,330.802734 C207.384766,330.802734 207.243707,330.753906 207.091797,330.65625 L204.845703,328.898438 C204.368273,329.148003 203.874566,329.354167 203.364583,329.516927 C203.190972,330.992622 203.033637,332.001736 202.892578,332.544271 C202.816623,332.84809 202.621311,333 202.306641,333 L198.693359,333 C198.54145,333 198.408529,332.953885 198.294596,332.861654 C198.180664,332.769423 198.118273,332.652778 198.107422,332.511719 L197.651693,329.516927 C197.120009,329.343316 196.631727,329.142578 196.186849,328.914714 L193.891927,330.65625 C193.78342,330.753906 193.647786,330.802734 193.485026,330.802734 C193.333116,330.802734 193.197483,330.743056 193.078125,330.623698 C191.710938,329.386719 190.815755,328.47526 190.392578,327.889323 C190.316623,327.780816 190.278646,327.656033 190.278646,327.514974 C190.278646,327.384766 190.322049,327.259983 190.408854,327.140625 C190.571615,326.91276 190.848307,326.551975 191.238932,326.058268 C191.629557,325.564562 191.922526,325.182075 192.117839,324.910807 C191.82487,324.368273 191.602431,323.831163 191.450521,323.299479 L188.472005,322.860026 C188.330946,322.838325 188.217014,322.770508 188.130208,322.656576 C188.043403,322.542643 188,322.415148 188,322.274089 L188,318.660807 C188,318.530599 188.043403,318.405816 188.130208,318.286458 C188.217014,318.167101 188.320095,318.096571 188.439453,318.07487 L191.466797,317.619141 C191.618707,317.120009 191.830295,316.620877 192.101562,316.121745 C191.667535,315.503255 191.087023,314.754557 190.360026,313.875651 C190.251519,313.745443 190.197266,313.615234 190.197266,313.485026 C190.197266,313.376519 190.246094,313.251736 190.34375,313.110677 C190.625868,312.720052 191.160265,312.136827 191.94694,311.361003 C192.733615,310.585178 193.246311,310.197266 193.485026,310.197266 C193.626085,310.197266 193.767144,310.251519 193.908203,310.360026 L196.154297,312.101562 C196.631727,311.851997 197.125434,311.645833 197.635417,311.483073 C197.809028,310.007378 197.966363,308.998264 198.107422,308.455729 C198.183377,308.15191 198.378689,308 198.693359,308 L202.306641,308 C202.45855,308 202.591471,308.046115 202.705404,308.138346 C202.819336,308.230577 202.881727,308.347222 202.892578,308.488281 L203.348307,311.483073 C203.879991,311.656684 204.368273,311.857422 204.813151,312.085286 L207.124349,310.34375 C207.222005,310.246094 207.352214,310.197266 207.514974,310.197266 C207.656033,310.197266 207.791667,310.251519 207.921875,310.360026 C209.321615,311.651259 210.216797,312.573568 210.607422,313.126953 C210.683377,313.213759 210.721354,313.333116 210.721354,313.485026 C210.721354,313.615234 210.677951,313.740017 210.591146,313.859375 C210.428385,314.08724 210.151693,314.448025 209.761068,314.941732 C209.370443,315.435438 209.077474,315.817925 208.882161,316.089193 C209.16428,316.631727 209.386719,317.163411 209.549479,317.684245 L212.527995,318.139974 C212.669054,318.161675 212.782986,318.229492 212.869792,318.343424 C212.956597,318.457357 213,318.584852 213,318.725911 L213,318.725911 Z" id="Shape-2" fill="#169F4F" sketch:type="MSShapeGroup"></path>
            <path d="M203.666667,497.5 C203.666667,496.349826 203.259766,495.367839 202.445964,494.554036 C201.632161,493.740234 200.650174,493.333333 199.5,493.333333 C198.349826,493.333333 197.367839,493.740234 196.554036,494.554036 C195.740234,495.367839 195.333333,496.349826 195.333333,497.5 C195.333333,498.650174 195.740234,499.632161 196.554036,500.445964 C197.367839,501.259766 198.349826,501.666667 199.5,501.666667 C200.650174,501.666667 201.632161,501.259766 202.445964,500.445964 C203.259766,499.632161 203.666667,498.650174 203.666667,497.5 L203.666667,497.5 Z M212,495.725911 L212,499.339193 C212,499.469401 211.956597,499.594184 211.869792,499.713542 C211.782986,499.832899 211.674479,499.903429 211.544271,499.92513 L208.533203,500.380859 C208.32704,500.966797 208.115451,501.460503 207.898438,501.861979 C208.278212,502.404514 208.858724,503.153212 209.639974,504.108073 C209.748481,504.238281 209.802734,504.373915 209.802734,504.514974 C209.802734,504.656033 209.753906,504.780816 209.65625,504.889323 C209.363281,505.290799 208.826172,505.876736 208.044922,506.647135 C207.263672,507.417535 206.753689,507.802734 206.514974,507.802734 C206.384766,507.802734 206.243707,507.753906 206.091797,507.65625 L203.845703,505.898438 C203.368273,506.148003 202.874566,506.354167 202.364583,506.516927 C202.190972,507.992622 202.033637,509.001736 201.892578,509.544271 C201.816623,509.84809 201.621311,510 201.306641,510 L197.693359,510 C197.54145,510 197.408529,509.953885 197.294596,509.861654 C197.180664,509.769423 197.118273,509.652778 197.107422,509.511719 L196.651693,506.516927 C196.120009,506.343316 195.631727,506.142578 195.186849,505.914714 L192.891927,507.65625 C192.78342,507.753906 192.647786,507.802734 192.485026,507.802734 C192.333116,507.802734 192.197483,507.743056 192.078125,507.623698 C190.710938,506.386719 189.815755,505.47526 189.392578,504.889323 C189.316623,504.780816 189.278646,504.656033 189.278646,504.514974 C189.278646,504.384766 189.322049,504.259983 189.408854,504.140625 C189.571615,503.91276 189.848307,503.551975 190.238932,503.058268 C190.629557,502.564562 190.922526,502.182075 191.117839,501.910807 C190.82487,501.368273 190.602431,500.831163 190.450521,500.299479 L187.472005,499.860026 C187.330946,499.838325 187.217014,499.770508 187.130208,499.656576 C187.043403,499.542643 187,499.415148 187,499.274089 L187,495.660807 C187,495.530599 187.043403,495.405816 187.130208,495.286458 C187.217014,495.167101 187.320095,495.096571 187.439453,495.07487 L190.466797,494.619141 C190.618707,494.120009 190.830295,493.620877 191.101562,493.121745 C190.667535,492.503255 190.087023,491.754557 189.360026,490.875651 C189.251519,490.745443 189.197266,490.615234 189.197266,490.485026 C189.197266,490.376519 189.246094,490.251736 189.34375,490.110677 C189.625868,489.720052 190.160265,489.136827 190.94694,488.361003 C191.733615,487.585178 192.246311,487.197266 192.485026,487.197266 C192.626085,487.197266 192.767144,487.251519 192.908203,487.360026 L195.154297,489.101562 C195.631727,488.851997 196.125434,488.645833 196.635417,488.483073 C196.809028,487.007378 196.966363,485.998264 197.107422,485.455729 C197.183377,485.15191 197.378689,485 197.693359,485 L201.306641,485 C201.45855,485 201.591471,485.046115 201.705404,485.138346 C201.819336,485.230577 201.881727,485.347222 201.892578,485.488281 L202.348307,488.483073 C202.879991,488.656684 203.368273,488.857422 203.813151,489.085286 L206.124349,487.34375 C206.222005,487.246094 206.352214,487.197266 206.514974,487.197266 C206.656033,487.197266 206.791667,487.251519 206.921875,487.360026 C208.321615,488.651259 209.216797,489.573568 209.607422,490.126953 C209.683377,490.213759 209.721354,490.333116 209.721354,490.485026 C209.721354,490.615234 209.677951,490.740017 209.591146,490.859375 C209.428385,491.08724 209.151693,491.448025 208.761068,491.941732 C208.370443,492.435438 208.077474,492.817925 207.882161,493.089193 C208.16428,493.631727 208.386719,494.163411 208.549479,494.684245 L211.527995,495.139974 C211.669054,495.161675 211.782986,495.229492 211.869792,495.343424 C211.956597,495.457357 212,495.584852 212,495.725911 L212,495.725911 Z" id="Shape-3" fill="#169F4F" sketch:type="MSShapeGroup"></path>
            <path d="M206.666667,669.5 C206.666667,668.349826 206.259766,667.367839 205.445964,666.554036 C204.632161,665.740234 203.650174,665.333333 202.5,665.333333 C201.349826,665.333333 200.367839,665.740234 199.554036,666.554036 C198.740234,667.367839 198.333333,668.349826 198.333333,669.5 C198.333333,670.650174 198.740234,671.632161 199.554036,672.445964 C200.367839,673.259766 201.349826,673.666667 202.5,673.666667 C203.650174,673.666667 204.632161,673.259766 205.445964,672.445964 C206.259766,671.632161 206.666667,670.650174 206.666667,669.5 L206.666667,669.5 Z M215,667.725911 L215,671.339193 C215,671.469401 214.956597,671.594184 214.869792,671.713542 C214.782986,671.832899 214.674479,671.903429 214.544271,671.92513 L211.533203,672.380859 C211.32704,672.966797 211.115451,673.460503 210.898438,673.861979 C211.278212,674.404514 211.858724,675.153212 212.639974,676.108073 C212.748481,676.238281 212.802734,676.373915 212.802734,676.514974 C212.802734,676.656033 212.753906,676.780816 212.65625,676.889323 C212.363281,677.290799 211.826172,677.876736 211.044922,678.647135 C210.263672,679.417535 209.753689,679.802734 209.514974,679.802734 C209.384766,679.802734 209.243707,679.753906 209.091797,679.65625 L206.845703,677.898438 C206.368273,678.148003 205.874566,678.354167 205.364583,678.516927 C205.190972,679.992622 205.033637,681.001736 204.892578,681.544271 C204.816623,681.84809 204.621311,682 204.306641,682 L200.693359,682 C200.54145,682 200.408529,681.953885 200.294596,681.861654 C200.180664,681.769423 200.118273,681.652778 200.107422,681.511719 L199.651693,678.516927 C199.120009,678.343316 198.631727,678.142578 198.186849,677.914714 L195.891927,679.65625 C195.78342,679.753906 195.647786,679.802734 195.485026,679.802734 C195.333116,679.802734 195.197483,679.743056 195.078125,679.623698 C193.710938,678.386719 192.815755,677.47526 192.392578,676.889323 C192.316623,676.780816 192.278646,676.656033 192.278646,676.514974 C192.278646,676.384766 192.322049,676.259983 192.408854,676.140625 C192.571615,675.91276 192.848307,675.551975 193.238932,675.058268 C193.629557,674.564562 193.922526,674.182075 194.117839,673.910807 C193.82487,673.368273 193.602431,672.831163 193.450521,672.299479 L190.472005,671.860026 C190.330946,671.838325 190.217014,671.770508 190.130208,671.656576 C190.043403,671.542643 190,671.415148 190,671.274089 L190,667.660807 C190,667.530599 190.043403,667.405816 190.130208,667.286458 C190.217014,667.167101 190.320095,667.096571 190.439453,667.07487 L193.466797,666.619141 C193.618707,666.120009 193.830295,665.620877 194.101562,665.121745 C193.667535,664.503255 193.087023,663.754557 192.360026,662.875651 C192.251519,662.745443 192.197266,662.615234 192.197266,662.485026 C192.197266,662.376519 192.246094,662.251736 192.34375,662.110677 C192.625868,661.720052 193.160265,661.136827 193.94694,660.361003 C194.733615,659.585178 195.246311,659.197266 195.485026,659.197266 C195.626085,659.197266 195.767144,659.251519 195.908203,659.360026 L198.154297,661.101562 C198.631727,660.851997 199.125434,660.645833 199.635417,660.483073 C199.809028,659.007378 199.966363,657.998264 200.107422,657.455729 C200.183377,657.15191 200.378689,657 200.693359,657 L204.306641,657 C204.45855,657 204.591471,657.046115 204.705404,657.138346 C204.819336,657.230577 204.881727,657.347222 204.892578,657.488281 L205.348307,660.483073 C205.879991,660.656684 206.368273,660.857422 206.813151,661.085286 L209.124349,659.34375 C209.222005,659.246094 209.352214,659.197266 209.514974,659.197266 C209.656033,659.197266 209.791667,659.251519 209.921875,659.360026 C211.321615,660.651259 212.216797,661.573568 212.607422,662.126953 C212.683377,662.213759 212.721354,662.333116 212.721354,662.485026 C212.721354,662.615234 212.677951,662.740017 212.591146,662.859375 C212.428385,663.08724 212.151693,663.448025 211.761068,663.941732 C211.370443,664.435438 211.077474,664.817925 210.882161,665.089193 C211.16428,665.631727 211.386719,666.163411 211.549479,666.684245 L214.527995,667.139974 C214.669054,667.161675 214.782986,667.229492 214.869792,667.343424 C214.956597,667.457357 215,667.584852 215,667.725911 L215,667.725911 Z" id="Shape-4" fill="#169F4F" sketch:type="MSShapeGroup"></path>
        </g>
    </g>
</svg>